<svg width="27" height="25" viewBox="0 0 27 25" fill="none" xmlns="http://www.w3.org/2000/svg">
<path d="M13.5 0C6.04398 0 0 4.8224 0 10.7712C0 14.2852 2.1233 17.7527 6.40416 19.9209L5.21173 24.8223C5.21173 24.8893 5.25509 24.9499 5.32433 24.981C5.3544 24.9944 5.38657 25.0007 5.41944 25.0007C5.4621 25.0007 5.50407 24.9894 5.54043 24.9676L10.9941 21.3421C11.9495 21.5128 12.4803 21.5431 13.5 21.5431C20.956 21.5431 27 16.7207 27 10.7719C27 4.8231 20.956 0 13.5 0ZM6.85526 13.7174C6.85526 13.8916 6.78462 14.0616 6.66223 14.1851C6.54124 14.3071 6.37339 14.3783 6.20134 14.3783H6.05797C5.88523 14.3783 5.71668 14.3078 5.59638 14.1851C5.47329 14.0616 5.40336 13.8909 5.40336 13.7174V8.94792H4.12001C3.74864 8.94792 3.44861 8.64462 3.44861 8.27079C3.44861 7.89696 3.74934 7.59367 4.12001 7.59367H8.06797C8.43934 7.59367 8.74007 7.89696 8.74007 8.27079C8.74007 8.64462 8.43934 8.94792 8.06797 8.94792H6.85596V13.7174H6.85526ZM13.3182 14.343C12.9783 14.4637 12.6055 14.2831 12.4859 13.9403L12.1516 12.9768H9.45902L9.12402 13.9403C9.00443 14.2831 8.63166 14.4637 8.29177 14.343C7.95257 14.2224 7.77353 13.8472 7.89313 13.5037L9.82759 8.27009C9.83808 8.23905 9.85207 8.20943 9.86536 8.18122C9.94439 7.79398 10.3416 7.49774 10.8221 7.49774C11.255 7.49774 11.618 7.73897 11.7439 8.06907C11.746 8.07048 11.7502 8.07541 11.7502 8.07541L13.7175 13.5037C13.8371 13.8472 13.6581 14.2224 13.3182 14.343ZM17.555 14.3339H14.8722C14.5344 14.3339 14.263 14.0588 14.263 13.7188C14.263 13.6793 14.2672 13.6398 14.2742 13.6017C14.2679 13.5629 14.263 13.5249 14.263 13.4839V8.23341C14.263 7.82714 14.5889 7.49845 14.9918 7.49845C15.3946 7.49845 15.7198 7.82714 15.7198 8.23341V13.1045H17.5557C17.8935 13.1045 18.1648 13.3803 18.1648 13.7188C18.1648 14.0574 17.8928 14.3339 17.5557 14.3339H17.555ZM23.2919 14.2478C23.0045 14.4665 22.5953 14.4072 22.3799 14.1173L20.4448 11.5563L20.0287 11.9752V13.6448C20.0287 14.051 19.7027 14.3797 19.3006 14.3797C18.8985 14.3797 18.5719 14.0517 18.5719 13.6448V8.23271C18.5719 7.82643 18.8978 7.49774 19.3006 7.49774C19.7034 7.49774 20.0287 7.82643 20.0287 8.23271V10.1463L22.317 7.83842C22.5681 7.58591 22.9744 7.58591 23.2241 7.83842C23.4745 8.09093 23.4745 8.50073 23.2241 8.75254L21.3756 10.6175L23.4213 13.3274C23.6374 13.6173 23.5794 14.0299 23.2919 14.2478Z" fill="white"/>
<path d="M10.9848 9L10 12H12L11.016 9.00325C11.0046 9.00325 10.9954 9 10.984 9H10.9848Z" fill="white"/>
</svg>
