<svg width="25" height="25" viewBox="0 0 25 25" fill="none" xmlns="http://www.w3.org/2000/svg">
<path d="M17.7846 0H7.21538C3.2293 0 0 3.23164 0 7.21538V17.7846C0 21.7707 3.23165 25 7.21538 25H17.7846C21.7707 25 25 21.7684 25 17.7846V7.21538C25 3.22929 21.7684 0 17.7846 0ZM22.6991 17.9703C22.6991 20.6167 20.5556 22.7602 17.9092 22.7602H7.09316C4.44674 22.7602 2.30328 20.6167 2.30328 17.9703V7.15427C2.30328 4.50784 4.44674 2.36439 7.09316 2.36439H17.9092C20.5556 2.36439 22.6991 4.50784 22.6991 7.15427V17.9703Z" fill="white"/>
<path d="M12.5 6C8.91087 6 6 8.91087 6 12.5C6 16.0891 8.91087 19 12.5 19C16.0891 19 19 16.0891 19 12.5C19 8.91087 16.0891 6 12.5 6ZM12.5 16.7156C10.1732 16.7156 8.28677 14.8292 8.28677 12.5024C8.28677 10.1755 10.1732 8.28913 12.5 8.28913C14.8268 8.28913 16.7132 10.1755 16.7132 12.5024C16.7132 14.8292 14.8268 16.7156 12.5 16.7156Z" fill="white"/>
<path d="M19.5 7C20.3284 7 21 6.32843 21 5.5C21 4.67157 20.3284 4 19.5 4C18.6716 4 18 4.67157 18 5.5C18 6.32843 18.6716 7 19.5 7Z" fill="white"/>
</svg>
