<svg width="150" height="43" viewBox="0 0 150 43" fill="none" xmlns="http://www.w3.org/2000/svg">
<g clip-path="url(#clip0_1_179)">
<path d="M137.972 43H0V0H150V31.051L137.972 43Z" fill="white"/>
<path d="M51.1724 37.9575H37.5862V4.63184H50.7586V11.0722H44.2897V17.5538H50.4966V23.8434H44.2897V31.4897H51.1862V37.9712L51.1724 37.9575ZM35.8621 37.9575H29.3104V22.8294H26.2069V37.9575H19.6552V4.63184H26.2069V16.5397H29.3104V4.63184H35.8621V37.9575ZM18.5517 11.0311H14.6483V37.9575H8.06898V11.0311H4.16553V4.63184H18.5517V11.0311Z" fill="black"/>
<path d="M87.4208 4.65918H76.2759L73.1035 37.9849H79.4897L79.8759 32.5859H83.8621L84.3173 37.9849H90.5518L87.407 4.65918H87.4208ZM80.3725 27.2828L81.6001 10.3322H81.9035L83.3518 27.2828H80.3725Z" fill="black"/>
<path d="M134.814 20.6095C136.014 20.1984 136.855 19.4584 137.338 18.4033C137.821 17.3482 138.069 15.8682 138.069 13.9772C138.069 11.9081 137.917 10.2089 137.614 8.8797C137.31 7.55051 136.717 6.50908 135.835 5.76912C134.952 5.02916 133.71 4.65918 132.097 4.65918H121.986V37.9849H128.648V22.7745C129.586 22.7745 130.248 22.8979 130.607 23.1582C130.966 23.4186 131.145 24.0078 131.145 24.9396V37.9712H137.573L137.655 25.3644C137.655 23.9941 137.435 22.9116 136.979 22.1031C136.538 21.3083 135.807 20.8013 134.814 20.5958V20.6095ZM130.262 17.0056H128.69V10.8392H130.221C130.607 10.8392 130.897 10.9214 131.104 11.0859C131.31 11.2503 131.448 11.5518 131.531 12.004C131.614 12.4425 131.642 13.1002 131.642 13.9772C131.642 15.9916 131.186 17.0056 130.262 17.0056Z" fill="black"/>
<path d="M120.717 37.9986H107.131V4.65918H120.303V11.1133H113.834V17.5811H120.027V23.8708H113.834V31.5171H120.717V37.9986Z" fill="black"/>
<path d="M106.138 4.65918L100.897 27.0225V37.9986H94.6896V27.0225L89.4482 4.65918H95.9586L97.7931 15.9642L99.6276 4.65918H106.138Z" fill="black"/>
<path d="M72.345 37.9986H58.9795V4.65918H65.5726V32.3392H72.345V37.9986Z" fill="black"/>
</g>
<defs>
<clipPath id="clip0_1_179">
<rect width="150" height="43" fill="white"/>
</clipPath>
</defs>
</svg>
