<svg width="260" height="207" viewBox="0 0 260 207" fill="none" xmlns="http://www.w3.org/2000/svg">
<g clip-path="url(#clip0_1_435)">
<path d="M225.309 207H0V0H260V172.413L225.346 207H225.309Z" fill="black"/>
<path d="M72.9935 121.518L69.7551 166.729H77.6836L73.8124 121.518H72.9935ZM205.804 131.251C205.804 128.911 205.692 127.165 205.506 125.976C205.32 124.787 204.948 124.007 204.389 123.561C203.831 123.115 203.087 122.892 202.044 122.892H197.987V139.35H202.156C204.613 139.35 205.804 136.675 205.804 131.288M222.889 131.251C222.889 136.303 222.256 140.204 220.953 143.065C219.651 145.888 217.417 147.857 214.253 148.972C216.896 149.529 218.795 150.866 219.986 153.021C221.177 155.176 221.772 158.073 221.772 161.714L221.586 195.335H204.501V160.562C204.501 158.073 204.017 156.476 203.087 155.807C202.119 155.101 200.407 154.767 197.913 154.767V195.335H180.232V106.435H207.069C211.35 106.435 214.626 107.401 216.971 109.37C219.316 111.339 220.879 114.088 221.698 117.654C222.517 121.221 222.926 125.753 222.926 131.251M176.807 195.298H140.739V106.398H175.691V123.561H158.531V140.836H174.983V157.59H158.531V177.986H176.807V195.261V195.298ZM138.133 106.435L124.212 166.023V195.298H107.759V166.023L93.8382 106.435H111.109L115.986 136.564L120.862 106.435H138.133ZM134.895 99.0048H98.826V10.1048H133.778V27.2681H116.618V44.5429H133.071V61.2976H116.618V81.6929H134.895V98.9677V99.0048ZM94.2476 99.0048H76.8647V58.6599H68.6385V99.0048H51.2555V10.1048H68.6385V41.8681H76.8647V10.1048H94.2476V99.0048ZM50.4366 195.298L58.8861 106.398H88.4409L96.7788 195.298H80.2147L78.9864 180.921H68.4151L67.4101 195.298H50.4366ZM48.3894 195.298H12.9534V106.398H30.4481V180.178H48.4266V195.298H48.3894ZM48.3149 27.1938H37.967V99.0048H20.4724V27.1938H10.1245V10.1048H48.3149V27.1938Z" fill="white"/>
</g>
<defs>
<clipPath id="clip0_1_435">
<rect width="260" height="207" fill="white"/>
</clipPath>
</defs>
</svg>
